Coordinates
version=1
nRows=21
nColumns=33
inDegrees=yes

Units are S.I. units (second, meters, Newtons, ...)
Angles are in degrees.

endheader
time	ground_thorax_rot_x	ground_thorax_rot_y	ground_thorax_rot_z	ground_thorax_tx	ground_thorax_ty	ground_thorax_tz	clav_prot_r	clav_elev_r	scapula_abduction_r	scapula_elevation_r	scapula_upward_rot_r	scapula_winging_r	shoulder_elv_r	plane_of_elev_r	axial_rot_r	elbow_flexion_r	pro_sup_r	wrist_flex_r	wrist_dev_r	clav_prot_l	clav_elev_l	scapula_abduction_l	scapula_elevation_l	scapula_upward_rot_l	scapula_winging_l	shoulder_elv_l	plane_of_elev_l	axial_rot_l	elbow_flexion_l	pro_sup_l	wrist_flex_l	wrist_dev_l
      3.41000000	     35.88483446	     20.10036388	     25.78115427	   -148.83800746	    806.27798780	      6.65071879	     15.91569291	     38.15897188	     38.78033937	     45.00000000	    -45.00000000	   3154.63560101	   -109.93169906	    147.61580536	   -119.87069928	   1462.76247938	    196.61116520	      9.49927676	      4.12711548	     10.41811925	    -45.00000000	    -37.94904249	     45.00000000	    -43.84290719	  -2063.19763629	    436.21676686	     17.23664742	    -61.37486687	   1100.99854512	    216.09759092	     -0.46933094	     -5.22459652
      3.42000000	     35.52619821	     20.67590510	     26.66677526	   -143.05910762	    803.51123428	      6.57267526	     15.85846745	     38.16940440	     38.55329496	     45.00000000	    -45.00000000	   3154.87797016	   -110.27447175	    147.57187766	   -118.85142196	   1462.54368962	    198.51567405	      9.31981802	      3.96648616	     10.55923322	    -45.00000000	    -37.99102117	     45.00000000	    -43.98488460	  -2063.53922512	    435.97772511	     17.13223300	    -62.19997062	   1100.57768094	    218.67557537	     -0.40508123	     -4.92097280
      3.43000000	     35.18961990	     21.35795507	     27.74167661	   -137.24358014	    800.67357154	      6.47746618	     15.73892184	     38.16763714	     38.37679998	     45.00000000	    -45.00000000	   3155.11097438	   -110.56044354	    147.64247885	   -117.63643793	   1462.19534339	    200.43612166	      9.14136102	      3.77718315	     10.70074116	    -45.00000000	    -37.89724875	     45.00000000	    -44.38020684	  -2063.86099978	    435.61115521	     17.01410495	    -62.89450836	   1100.20664612	    221.38286223	     -0.33757121	     -4.57434910
      3.44000000	     34.80400399	     21.89029948	     28.96123271	   -131.41320192	    797.79213882	      6.37166193	     16.10120791	     38.13597472	     38.54698273	     45.00000000	    -45.00000000	   3155.61312453	   -110.91576443	    148.22376051	   -116.08010707	   1461.75355153	    203.33816960	      8.93684874	      3.85906380	     10.10460475	    -45.00000000	    -37.50537503	     45.00000000	    -44.79727000	  -2064.28818454	    435.42516901	     16.69996010	    -63.13568161	   1099.57497900	    225.83314417	     -0.18861855	     -3.95552646
      3.45000000	     34.07085921	     23.01915599	     30.41918323	   -125.59337902	    794.90103054	      6.25950286	     14.29536986	     37.51620756	     37.87022176	     45.00000000	    -45.00000000	   3155.71506416	   -111.36857899	    148.29523130	   -114.86443170	   1461.57397746	    204.82691603	      8.72392469	      3.51461210	     11.67714425	    -45.00000000	    -38.05814005	     45.00000000	    -45.00000000	  -2064.02460229	    434.97097020	     16.75927619	    -65.37851495	   1099.07394380	    228.37010546	     -0.14778220	     -3.66163127
      3.46000000	     33.92869048	     23.09877884	     30.93396018	   -119.81544345	    792.03615546	      6.14579063	     15.25238073	     37.92191831	     37.85549302	     45.00000000	    -45.00000000	   3156.18783958	   -110.39795836	    147.05211884	   -145.54502875	   1451.27375066	    370.87814368	     17.15835874	     12.36598291	     10.91302895	    -45.00000000	    -37.73803858	     45.00000000	    -45.00000000	  -2064.95490691	    430.93605789	     22.76469922	    -24.25329963	   1087.61554625	    377.78783108	     13.88829612	    -18.91176115
      3.47000000	     33.16157174	     24.09265966	     32.52652184	   -114.09849839	    789.23196179	      6.03180730	     14.47584304	     37.60700726	     37.11848185	     45.00000000	    -45.00000000	   3156.56020857	   -110.67486629	    147.04766422	   -145.28050894	   1450.88261603	    371.22896925	     16.59446045	     13.16073681	     11.73514999	    -45.00000000	    -37.91784206	     45.00000000	    -45.00000000	  -2064.62833983	    430.34254074	     22.66400804	    -26.74722707	   1087.31257381	    378.93785571	     13.68813967	    -18.95378564
      3.48000000	     32.80295546	     24.53145436	     33.56187391	   -108.48707693	    786.52641864	      5.91914588	     15.40802129	     38.11861562	     37.19388126	     45.00000000	    -45.00000000	   3156.65348956	   -111.23115159	    147.20725934	   -144.71204411	   1450.72644458	    371.83271257	     16.53500083	     13.17872854	     10.89112408	    -45.00000000	    -37.46202344	     45.00000000	    -45.00000000	  -2065.18826924	    430.08700504	     22.17968371	    -26.93279902	   1086.98432207	    379.72417032	     13.56907982	    -18.86544759
      3.49000000	     32.26583153	     25.08701969	     34.72854068	   -102.99373728	    783.94331621	      5.80762654	     15.18336523	     38.03157210	     36.81686148	     45.00000000	    -45.00000000	   3156.98826523	   -111.56812362	    147.25141730	   -144.04152931	   1450.46847258	    372.58686860	     16.41488289	     13.43015283	     11.07984286	    -45.00000000	    -37.37127045	     45.00000000	    -45.00000000	  -2065.26371245	    429.59709493	     22.06569142	    -27.12919711	   1086.50949430	    380.78424396	     13.79371255	    -18.75847092
      3.50000000	     31.33340935	     26.00820869	     36.25304926	    -97.70991070	    781.48410118	      5.66820855	     13.99513952	     37.37267979	     36.27767700	     45.00000000	    -45.00000000	   3157.70263801	   -111.88741104	    148.09519001	   -143.45682601	   1450.33691638	    373.35285653	     16.29469228	     13.96505321	     11.75949914	    -45.00000000	    -38.19934193	     45.00000000	    -45.00000000	  -2064.96951206	    428.84503103	     21.90696436	    -27.42340070	   1086.14673313	    381.87884646	     14.22511101	    -18.61995877
      3.51000000	     31.26132660	     26.04741909	     36.80280603	    -92.62533658	    779.17367428	      5.51273954	     15.18697370	     38.00700621	     36.28710668	     45.00000000	    -45.00000000	   3157.67539789	   -112.32747033	    147.61999362	   -143.18143598	   1449.98507181	    374.38672462	     16.25162783	     13.86017135	     10.94755876	    -45.00000000	    -37.21286434	     45.00000000	    -45.00000000	  -2065.65436106	    428.64066489	     21.77208508	    -26.73339747	   1085.47606472	    383.19009159	     14.09620405	    -18.62511270
      3.52000000	     30.91165197	     26.35101960	     37.55896215	    -87.86163888	    776.99929245	      5.30597282	     15.48170104	     38.16707653	     36.23102868	     45.00000000	    -45.00000000	   3158.03610704	   -112.70344716	    147.82980579	   -143.21287250	   1449.66660413	    375.66567816	     16.22762477	     13.98740032	     10.66062950	    -45.00000000	    -37.13698260	     45.00000000	    -45.00000000	  -2066.05727641	    428.28333332	     21.63816380	    -25.71316255	   1084.84405311	    384.83322682	     14.12800831	    -18.64874401
      3.53000000	     30.52030865	     26.73839430	     38.30795330	    -83.30053945	    775.03386297	      5.11379080	     15.33211345	     38.12229753	     35.89732912	     45.00000000	    -45.00000000	   3158.31619567	   -112.97835343	    147.84471428	   -143.30424130	   1449.34233592	    377.00702853	     16.20462674	     14.19470677	     10.86383471	    -45.00000000	    -37.09004503	     45.00000000	    -45.00000000	  -2066.28932541	    427.76245954	     21.72477068	    -24.77611959	   1084.15337927	    386.49010802	     14.21907789	    -18.65452530
      3.54000000	     29.77794243	     27.30847684	     39.43593174	    -79.03941749	    773.27830788	      4.91350567	     14.50100040	     37.71178085	     35.43241066	     45.00000000	    -45.00000000	   3158.93789242	   -113.31965433	    148.29159067	   -143.38642131	   1449.00047156	    378.15156608	     16.15081036	     14.59270157	     11.50362283	    -45.00000000	    -37.61819132	     45.00000000	    -45.00000000	  -2066.09991340	    427.10617161	     21.79796173	    -24.25742244	   1083.46492043	    387.83453230	     14.34301337	    -18.54726591
      3.55000000	     29.30671864	     27.68589280	     40.26693490	    -74.96327761	    771.81158122	      4.78090425	     14.65303555	     37.71929694	     35.17562566	     45.00000000	    -45.00000000	   3159.34348858	   -113.59598392	    148.55414615	   -143.62247650	   1448.63772808	    379.32230709	     16.13838014	     14.72104374	     11.41039451	    -45.00000000	    -37.59668384	     45.00000000	    -45.00000000	  -2066.36596358	    426.78640622	     21.67514548	    -23.43153586	   1082.81685460	    389.11911402	     14.26143919	    -18.49194916
      3.56000000	     28.93101605	     27.99694331	     40.99149880	    -71.16830132	    770.62894199	      4.69252454	     14.74785059	     37.73793534	     34.97542827	     45.00000000	    -45.00000000	   3159.61669872	   -113.85861029	    148.75981744	   -143.92075710	   1448.37888912	    380.48697881	     16.15739807	     14.81467597	     11.35371233	    -45.00000000	    -37.53961927	     45.00000000	    -45.00000000	  -2066.61129557	    426.47437110	     21.53181471	    -22.64121745	   1082.26688298	    390.39085129	     14.13798189	    -18.46584104
      3.57000000	     28.85708118	     27.90346095	     41.17240431	    -67.62728421	    769.76034657	      4.68381852	     14.87653262	     37.87275424	     34.98921097	     45.00000000	    -45.00000000	   3159.82302356	   -114.25744075	    148.57590456	   -144.16933164	   1447.97071846	    381.86672445	     16.19616845	     14.89199009	     11.19963540	    -45.00000000	    -37.23503126	     45.00000000	    -45.00000000	  -2066.86119220	    426.24535476	     21.68028869	    -21.90211515	   1081.78571083	    391.84945506	     14.00638900	    -18.53813313
      3.58000000	     28.57930678	     28.04454333	     41.76011719	    -64.40695346	    769.18697706	      4.73844075	     14.84391446	     37.82389800	     34.84944869	     45.00000000	    -45.00000000	   3160.08505056	   -114.43364325	    148.66604997	   -144.53377369	   1447.72088966	    383.11347674	     16.24955411	     14.95838344	     11.24013639	    -45.00000000	    -37.21841783	     45.00000000	    -45.00000000	  -2067.02373459	    426.02443855	     21.58565113	    -21.45274059	   1081.27333535	    393.20463744	     13.80864836	    -18.55219579
      3.59000000	     28.17946383	     28.36853908	     42.41298332	    -61.53467946	    768.89482028	      4.86548613	     15.16954506	     37.75074739	     34.34217039	     45.00000000	    -45.00000000	   3160.41828908	   -114.46222543	    148.79600547	   -144.80172189	   1447.54674149	    384.08847287	     16.27455570	     14.93115010	     11.24270622	    -45.00000000	    -37.13912861	     45.00000000	    -45.00000000	  -2067.35611870	    425.93455777	     21.17288224	    -21.30359276	   1081.08838095	    394.24164042	     13.47759631	    -18.55382674
      3.60000000	     28.35721839	     28.04175501	     42.15102578	    -59.00114316	    768.85930488	      5.06469805	     15.02016536	     37.88209473	     34.74948007	     45.00000000	    -45.00000000	   3160.47208796	   -114.90678814	    148.64866109	   -145.00090255	   1447.19791498	    385.39512202	     16.36066717	     14.95039836	     11.04681269	    -45.00000000	    -36.88846140	     45.00000000	    -45.00000000	  -2067.62992332	    425.83313699	     21.31836154	    -21.67547418	   1080.98069426	    395.55876147	     13.28742750	    -18.75050404
      3.61000000	     28.05167984	     28.13210880	     42.66204726	    -56.82985087	    769.04752343	      5.32806457	     15.25775318	     37.79223141	     34.33779941	     45.00000000	    -45.00000000	   3160.86444161	   -114.81276989	    148.71951226	   -145.25806450	   1447.17983422	    386.16282977	     16.40248306	     14.91845351	     11.22694851	    -45.00000000	    -36.98825212	     45.00000000	    -45.00000000	  -2067.78248430	    425.78859889	     20.91518719	    -22.16780649	   1080.91712933	    396.31259222	     12.93565913	    -18.75602802
